<?xml version="1.0" encoding="UTF-8"?>
<svg id="Layer_2" data-name="Layer 2" xmlns="http://www.w3.org/2000/svg" viewBox="0 0 269.29 67.58">
  <defs>
    <style>
      .cls-1 {
        fill: #30a4e5;
      }

      .cls-1, .cls-2, .cls-3, .cls-4 {
        stroke-width: 0px;
      }

      .cls-3 {
        fill: #0f67b7;
      }

      .cls-4 {
        fill: #1982d8;
      }
    </style>
  </defs>
  <g id="_圖層_1" data-name="圖層 1">
    <g>
      <g>
        <g>
          <path class="cls-2" d="M117.15,33.1c0,6.84-5.3,10.98-13.58,10.98h-11.67v-21.96h11.67c8.28,0,13.58,4.14,13.58,10.98ZM112.04,33.1c0-4.52-3.58-6.71-8.85-6.71h-6.27v13.43h6.27c5.27,0,8.85-2.2,8.85-6.71Z"/>
          <path class="cls-2" d="M144.65,39.87v4.2h-22.62v-21.96h22.3v4.2h-17.31v4.52h14.46v4.2h-14.46v4.83h17.63Z"/>
          <path class="cls-2" d="M170.19,39.75v4.33h-20.55v-21.96h5.02v17.63h15.53Z"/>
          <path class="cls-2" d="M207.63,34.04v10.04h-4.83v-9.79c0-2.7-1.35-4.27-4.17-4.27-2.48,0-4.33,1.32-5.52,3.64v6.99l.03,3.42h-4.86v-9.79c0-2.7-1.35-4.27-4.17-4.27-2.48,0-4.27,1.25-5.49,3.54v10.51h-4.86v-17.28h4.86v3.07c1.35-2.32,3.92-3.7,7.09-3.7,3.73,0,5.99,1.85,6.9,4.61,1.19-2.73,3.98-4.61,7.62-4.61,5.08,0,7.4,3.42,7.4,7.87Z"/>
          <path class="cls-2" d="M212.36,22.28c0-1.47,1.22-2.48,2.95-2.48s2.89,1,2.89,2.48-1.19,2.45-2.89,2.45-2.95-1.04-2.95-2.45ZM217.78,44.08h-4.86v-17.28h4.86v17.28Z"/>
          <path class="cls-2" d="M223.15,44.08v-17.28h4.86v3.04c1.41-2.29,4.2-3.67,7.53-3.67,5.18,0,7.84,3.29,7.84,7.9v10.01h-4.86v-9.69c0-2.82-1.51-4.36-4.39-4.36-2.57,0-4.71,1.19-6.12,3.67v10.38h-4.86Z"/>
          <path class="cls-2" d="M264.43,29.62v-8.75h4.86v23.21h-4.86v-2.79c-1.41,1.91-3.98,3.45-7.53,3.45-5.49,0-9.32-3.64-9.32-9.28s3.83-9.28,9.32-9.28c3.54,0,6.12,1.54,7.53,3.45ZM264.4,37.87v-4.83c-1.51-1.98-3.73-2.82-6.27-2.82-3.76,0-5.9,1.85-5.9,5.24s2.13,5.24,5.9,5.24c2.54,0,4.77-.85,6.27-2.82Z"/>
        </g>
        <g>
          <path class="cls-4" d="M57.17,25.89c1.72-3.31,3.23-6.81,3.77-10.4.26-1.79.24-3.6-.27-5.25C58.08,1.81,44.5-.58,37.1.11c-11.45,1.08-20.92,7.85-24.75,18.96-.31.86-.53,1.75-.72,2.63-.03.16-.06.32-.09.49,5-.46,27.51-1.82,39.06,13.07.06-.07.12-.14.18-.21,2.37-2.93,4.66-5.85,6.39-9.16Z"/>
          <path class="cls-3" d="M68.04,15.58c-1.74-3.02-3.9-5.65-6.36-7.87.35.63.64,1.29.84,1.97.61,2.02.59,4.11.3,6.09-.3,1.98-.88,3.88-1.58,5.7-.71,1.82-1.52,3.58-2.46,5.29-1.86,3.42-4.17,6.57-6.82,9.38-2.6,2.76-5.73,5.43-8.92,7.45-10.03,7.57-20.88,11.12-23.33,11.86,1.34,1.5,2.83,2.87,4.48,4.03,1.51,1.07,3.14,1.97,4.85,2.66,1.72.68,3.52,1.15,5.35,1.39,1.82.23,3.72.27,5.6.25,1.88-.03,3.76-.14,5.63-.39,3.44-.45,6.87-1.29,9.99-2.93.17-.09.33-.18.5-.28,15.61-9.01,20.96-28.97,11.94-44.58Z"/>
          <path class="cls-1" d="M23.31,60.7c-1.95-1.34-3.7-2.96-5.24-4.73-1.02-1.17-1.96-2.42-2.81-3.71-2.12-3.28-3.7-6.89-4.72-10.65-.5-1.88-.85-3.82-1.08-5.74-.23-1.93-.36-3.86-.38-5.8-.02-1.94.07-3.88.27-5.82,0-.08.02-.17.03-.25.1-.88.2-1.75.37-2.66.19-.98.44-1.95.76-2.89.26-.78.56-1.54.89-2.29-1.73,3.05-3.89,6.65-5.36,8.38-1.79,2.11-4.32,5.92-5.48,10.31,0,.03-.02.07-.03.1-.34,1.33-.52,2.73-.52,4.17,0,1.62.23,3.18.66,4.66.56,1.96,1.48,3.81,2.69,5.44,1.48,1.98,3.46,3.77,5.42,5.27,3.28,2.5,7.55,3.47,11.3,5.05"/>
        </g>
      </g>
      <g>
        <path class="cls-2" d="M101.51,64.75h-2.11l-.84-2.19h-3.85l-.79,2.19h-2.06l3.75-9.63h2.06l3.85,9.63ZM97.93,60.94l-1.33-3.57-1.3,3.57h2.63Z"/>
        <path class="cls-2" d="M105.77,55.12h3.55c.8,0,1.41.06,1.83.18.56.17,1.05.46,1.45.89.4.42.71.94.92,1.56.21.61.32,1.37.32,2.28,0,.79-.1,1.47-.3,2.05-.24.7-.58,1.27-1.03,1.7-.34.33-.79.58-1.37.77-.43.14-1,.2-1.72.2h-3.66v-9.63ZM107.71,56.75v6.38h1.45c.54,0,.93-.03,1.18-.09.31-.08.58-.21.78-.4.21-.19.38-.5.51-.93s.2-1.02.2-1.76-.07-1.31-.2-1.71c-.13-.4-.31-.71-.55-.93-.24-.22-.54-.37-.9-.45-.27-.06-.8-.09-1.59-.09h-.87Z"/>
        <path class="cls-2" d="M119.51,62.53l1.84.31c-.24.67-.61,1.19-1.12,1.54s-1.15.53-1.91.53c-1.21,0-2.11-.4-2.69-1.19-.46-.63-.69-1.44-.69-2.4,0-1.16.3-2.06.91-2.72.6-.65,1.37-.98,2.29-.98,1.04,0,1.86.34,2.46,1.03.6.69.89,1.73.86,3.15h-4.62c.01.55.16.97.45,1.28s.64.46,1.06.46c.29,0,.53-.08.73-.24s.35-.41.45-.76ZM119.62,60.67c-.01-.53-.15-.94-.41-1.22s-.58-.42-.96-.42c-.4,0-.74.15-1,.44-.26.29-.39.69-.39,1.19h2.76Z"/>
        <path class="cls-2" d="M122.95,64.75v-9.63h1.85v9.63h-1.85Z"/>
        <path class="cls-2" d="M129.89,57.78v1.47h-1.26v2.81c0,.57.01.9.04.99s.08.17.16.23c.09.06.19.09.31.09.17,0,.42-.06.74-.18l.16,1.43c-.43.18-.91.28-1.46.28-.33,0-.63-.06-.9-.17s-.46-.26-.59-.43c-.12-.18-.21-.42-.26-.72-.04-.21-.06-.65-.06-1.3v-3.04h-.85v-1.47h.85v-1.39l1.85-1.08v2.46h1.26Z"/>
        <path class="cls-2" d="M132.55,59.9l-1.67-.3c.19-.67.51-1.17.97-1.5s1.14-.49,2.05-.49c.82,0,1.44.1,1.84.29s.69.44.85.74c.16.3.25.85.25,1.65l-.02,2.15c0,.61.03,1.06.09,1.36s.17.6.33.94h-1.82c-.05-.12-.11-.3-.18-.54-.03-.11-.05-.18-.06-.22-.32.31-.65.54-1.01.69s-.74.23-1.15.23c-.72,0-1.28-.19-1.7-.58s-.62-.88-.62-1.48c0-.39.09-.74.28-1.05.19-.31.45-.54.79-.71.34-.16.83-.31,1.47-.43.86-.16,1.46-.31,1.79-.45v-.18c0-.35-.09-.61-.26-.76s-.5-.23-.99-.23c-.33,0-.58.06-.77.19-.18.13-.33.36-.45.68ZM135.02,61.4c-.24.08-.61.17-1.12.28s-.85.22-1,.32c-.24.17-.36.39-.36.65s.1.48.29.67.44.28.74.28c.33,0,.65-.11.95-.33.22-.17.37-.37.44-.61.05-.16.07-.46.07-.9v-.37Z"/>
        <path class="cls-2" d="M150.58,64.75h-2.11l-.84-2.19h-3.85l-.79,2.19h-2.06l3.75-9.63h2.06l3.85,9.63ZM147,60.94l-1.33-3.57-1.3,3.57h2.63Z"/>
        <path class="cls-2" d="M150.95,62.76l1.85-.28c.08.36.24.63.48.82s.58.28,1.01.28c.48,0,.84-.09,1.08-.26.16-.12.24-.29.24-.49,0-.14-.04-.26-.13-.35-.09-.09-.3-.17-.62-.24-1.49-.33-2.43-.63-2.83-.9-.55-.38-.83-.9-.83-1.57,0-.6.24-1.11.72-1.52.48-.41,1.22-.62,2.22-.62s1.66.15,2.13.47.78.77.96,1.38l-1.74.32c-.07-.27-.21-.48-.42-.62-.21-.14-.5-.22-.89-.22-.49,0-.83.07-1.04.2-.14.1-.21.22-.21.37,0,.13.06.24.18.33.17.12.74.3,1.72.52s1.67.5,2.06.82c.39.33.58.79.58,1.37,0,.64-.27,1.19-.8,1.65s-1.32.69-2.37.69c-.95,0-1.7-.19-2.26-.58-.55-.39-.92-.91-1.09-1.57Z"/>
        <path class="cls-2" d="M158.43,62.76l1.85-.28c.08.36.24.63.48.82s.58.28,1.01.28c.48,0,.84-.09,1.08-.26.16-.12.24-.29.24-.49,0-.14-.04-.26-.13-.35-.09-.09-.3-.17-.62-.24-1.49-.33-2.43-.63-2.83-.9-.55-.38-.83-.9-.83-1.57,0-.6.24-1.11.72-1.52.48-.41,1.22-.62,2.22-.62s1.66.15,2.13.47.78.77.96,1.38l-1.74.32c-.07-.27-.21-.48-.42-.62-.21-.14-.5-.22-.89-.22-.49,0-.83.07-1.04.2-.14.1-.21.22-.21.37,0,.13.06.24.18.33.17.12.74.3,1.72.52s1.67.5,2.06.82c.39.33.58.79.58,1.37,0,.64-.27,1.19-.8,1.65s-1.32.69-2.37.69c-.95,0-1.7-.19-2.26-.58-.55-.39-.92-.91-1.09-1.57Z"/>
        <path class="cls-2" d="M166.13,61.16c0-.61.15-1.21.45-1.78.3-.57.73-1.01,1.28-1.31s1.17-.45,1.85-.45c1.05,0,1.92.34,2.59,1.03.67.69,1.01,1.55,1.01,2.6s-.34,1.93-1.02,2.62c-.68.69-1.54,1.04-2.57,1.04-.64,0-1.25-.14-1.83-.43s-1.02-.71-1.32-1.27c-.3-.56-.45-1.24-.45-2.04ZM168.02,61.26c0,.69.16,1.22.49,1.59.33.37.73.55,1.21.55s.88-.18,1.21-.55.49-.9.49-1.6-.16-1.21-.49-1.58-.73-.55-1.21-.55-.89.18-1.21.55c-.33.37-.49.9-.49,1.59Z"/>
        <path class="cls-2" d="M180.86,59.84l-1.82.33c-.06-.36-.2-.64-.42-.82s-.5-.28-.84-.28c-.46,0-.83.16-1.1.48-.27.32-.41.85-.41,1.59,0,.83.14,1.41.42,1.75.28.34.65.51,1.12.51.35,0,.64-.1.86-.3.22-.2.38-.54.47-1.03l1.81.31c-.19.83-.55,1.46-1.08,1.88-.53.42-1.25.64-2.15.64-1.02,0-1.83-.32-2.44-.97-.61-.64-.91-1.53-.91-2.67s.3-2.05.91-2.69c.61-.64,1.43-.96,2.47-.96.85,0,1.52.18,2.03.55.5.37.86.92,1.08,1.67Z"/>
        <path class="cls-2" d="M182.25,56.83v-1.71h1.85v1.71h-1.85ZM182.25,64.75v-6.97h1.85v6.97h-1.85Z"/>
        <path class="cls-2" d="M187.37,59.9l-1.67-.3c.19-.67.51-1.17.97-1.5s1.14-.49,2.05-.49c.82,0,1.44.1,1.84.29s.69.44.85.74c.16.3.25.85.25,1.65l-.02,2.15c0,.61.03,1.06.09,1.36s.17.6.33.94h-1.82c-.05-.12-.11-.3-.18-.54-.03-.11-.05-.18-.06-.22-.32.31-.65.54-1.01.69s-.74.23-1.15.23c-.72,0-1.28-.19-1.7-.58s-.62-.88-.62-1.48c0-.39.09-.74.28-1.05.19-.31.45-.54.79-.71.34-.16.83-.31,1.47-.43.86-.16,1.46-.31,1.79-.45v-.18c0-.35-.09-.61-.26-.76s-.5-.23-.99-.23c-.33,0-.58.06-.77.19-.18.13-.33.36-.45.68ZM189.84,61.4c-.24.08-.61.17-1.12.28s-.85.22-1,.32c-.24.17-.36.39-.36.65s.1.48.29.67.44.28.74.28c.33,0,.65-.11.95-.33.22-.17.37-.37.44-.61.05-.16.07-.46.07-.9v-.37Z"/>
        <path class="cls-2" d="M196.67,57.78v1.47h-1.26v2.81c0,.57.01.9.04.99s.08.17.16.23c.09.06.19.09.31.09.17,0,.42-.06.74-.18l.16,1.43c-.43.18-.91.28-1.46.28-.33,0-.63-.06-.9-.17s-.46-.26-.59-.43c-.12-.18-.21-.42-.26-.72-.04-.21-.06-.65-.06-1.3v-3.04h-.85v-1.47h.85v-1.39l1.85-1.08v2.46h1.26Z"/>
        <path class="cls-2" d="M201.99,62.53l1.84.31c-.24.67-.61,1.19-1.12,1.54s-1.15.53-1.91.53c-1.21,0-2.11-.4-2.69-1.19-.46-.63-.69-1.44-.69-2.4,0-1.16.3-2.06.91-2.72.6-.65,1.37-.98,2.29-.98,1.04,0,1.86.34,2.46,1.03.6.69.89,1.73.86,3.15h-4.62c.01.55.16.97.45,1.28s.64.46,1.06.46c.29,0,.53-.08.73-.24s.35-.41.45-.76ZM202.09,60.67c-.01-.53-.15-.94-.41-1.22s-.58-.42-.96-.42c-.4,0-.74.15-1,.44-.26.29-.39.69-.39,1.19h2.76Z"/>
        <path class="cls-2" d="M215.34,61.21l1.88.6c-.29,1.05-.77,1.83-1.44,2.34s-1.52.76-2.56.76c-1.28,0-2.33-.44-3.15-1.31-.82-.87-1.23-2.07-1.23-3.58,0-1.6.41-2.85,1.24-3.73.83-.89,1.92-1.33,3.26-1.33,1.18,0,2.13.35,2.87,1.04.44.41.77,1,.98,1.77l-1.92.46c-.11-.5-.35-.89-.71-1.18s-.8-.43-1.32-.43c-.71,0-1.29.26-1.74.77-.44.51-.67,1.34-.67,2.49,0,1.22.22,2.08.66,2.6.44.52,1.01.77,1.71.77.52,0,.96-.16,1.33-.49s.64-.84.8-1.55Z"/>
        <path class="cls-2" d="M218.45,61.16c0-.61.15-1.21.45-1.78.3-.57.73-1.01,1.28-1.31s1.17-.45,1.85-.45c1.05,0,1.92.34,2.59,1.03.67.69,1.01,1.55,1.01,2.6s-.34,1.93-1.02,2.62c-.68.69-1.54,1.04-2.57,1.04-.64,0-1.25-.14-1.83-.43s-1.02-.71-1.32-1.27c-.3-.56-.45-1.24-.45-2.04ZM220.34,61.26c0,.69.16,1.22.49,1.59.33.37.73.55,1.21.55s.88-.18,1.21-.55.49-.9.49-1.6-.16-1.21-.49-1.58-.73-.55-1.21-.55-.89.18-1.21.55c-.33.37-.49.9-.49,1.59Z"/>
        <path class="cls-2" d="M226.96,57.78h1.7v.95c.61-.74,1.33-1.11,2.17-1.11.45,0,.83.09,1.16.27s.6.46.81.83c.31-.37.64-.65.99-.83.35-.18.73-.27,1.14-.27.51,0,.94.1,1.3.31.35.21.62.51.79.92.13.3.19.78.19,1.44v4.46h-1.84v-3.99c0-.69-.06-1.14-.19-1.34-.17-.26-.43-.39-.79-.39-.26,0-.5.08-.73.24s-.39.39-.49.69c-.1.3-.15.78-.15,1.44v3.35h-1.84v-3.82c0-.68-.03-1.12-.1-1.31-.06-.2-.17-.34-.3-.44s-.32-.14-.56-.14c-.28,0-.54.08-.77.23-.23.15-.39.37-.49.66-.1.29-.15.77-.15,1.44v3.39h-1.84v-6.97Z"/>
        <path class="cls-2" d="M239,57.78h1.72v1.02c.22-.35.52-.63.91-.85s.8-.33,1.27-.33c.81,0,1.5.32,2.06.95s.85,1.52.85,2.65-.28,2.07-.85,2.72-1.26.97-2.07.97c-.38,0-.73-.08-1.05-.23s-.64-.42-.99-.79v3.51h-1.84v-9.63ZM240.83,61.14c0,.78.15,1.36.47,1.74.31.37.69.56,1.14.56s.79-.17,1.07-.52c.28-.34.43-.91.43-1.69,0-.73-.15-1.27-.44-1.63-.29-.35-.66-.53-1.09-.53s-.82.17-1.12.52c-.3.35-.45.86-.45,1.55Z"/>
        <path class="cls-2" d="M248.65,59.9l-1.67-.3c.19-.67.51-1.17.97-1.5s1.14-.49,2.05-.49c.82,0,1.44.1,1.84.29s.69.44.85.74c.16.3.25.85.25,1.65l-.02,2.15c0,.61.03,1.06.09,1.36s.17.6.33.94h-1.82c-.05-.12-.11-.3-.18-.54-.03-.11-.05-.18-.06-.22-.32.31-.65.54-1.01.69s-.74.23-1.15.23c-.72,0-1.28-.19-1.7-.58s-.62-.88-.62-1.48c0-.39.09-.74.28-1.05.19-.31.45-.54.79-.71.34-.16.83-.31,1.47-.43.86-.16,1.46-.31,1.79-.45v-.18c0-.35-.09-.61-.26-.76s-.5-.23-.99-.23c-.33,0-.58.06-.77.19-.18.13-.33.36-.45.68ZM251.12,61.4c-.24.08-.61.17-1.12.28s-.85.22-1,.32c-.24.17-.36.39-.36.65s.1.48.29.67.44.28.74.28c.33,0,.65-.11.95-.33.22-.17.37-.37.44-.61.05-.16.07-.46.07-.9v-.37Z"/>
        <path class="cls-2" d="M261.09,64.75h-1.85v-3.56c0-.75-.04-1.24-.12-1.46s-.21-.39-.38-.52c-.18-.12-.39-.18-.64-.18-.32,0-.61.09-.86.26s-.43.41-.52.7-.14.82-.14,1.6v3.16h-1.85v-6.97h1.71v1.02c.61-.79,1.37-1.18,2.3-1.18.41,0,.78.07,1.12.22.34.15.59.33.76.56s.29.49.36.77.1.7.1,1.24v4.33Z"/>
        <path class="cls-2" d="M262.09,57.78h1.96l1.67,4.95,1.63-4.95h1.91l-2.46,6.71-.44,1.21c-.16.41-.32.72-.46.93-.15.21-.31.39-.51.52-.19.13-.42.24-.7.31s-.59.11-.94.11-.7-.04-1.04-.11l-.16-1.44c.29.06.55.09.78.09.43,0,.75-.13.95-.38.21-.25.36-.57.47-.96l-2.65-6.99Z"/>
      </g>
    </g>
  </g>
</svg>